# xmcd CD database file
#
# Track frame offsets:
#	150
#	17344
#	34214
#	53654
#	69642
#	89226
#	106599
#	121434
#	144800
#	166782
#	185889
#	211803
#	226566
#
# Disc length: 3215 seconds
#
# Revision: 0
# Processed by: cddbd v1.5.1PL0 Copyright (c) Steve Scherf et al.
# Submitted via: CDex 1.51
#
DISCID=a30c8d0d
DTITLE=Phantom Blues Band - Limited Edition
DYEAR=2002
DGENRE=Blues
TTITLE0=Do the Dirt
TTITLE1=My Aching Back
TTITLE2=Who's Been Sleeping in My Bed
TTITLE3=I Only Have Love
TTITLE4=Rain Down Tears
TTITLE5=I'm Looking For A Miracle
TTITLE6=Big Boy Pete
TTITLE7=Let Them Talk
TTITLE8=Book of Rules
TTITLE9=Havana Moon
TTITLE10=Part Time Love
TTITLE11=Think
TTITLE12=Yeild Not to Temptation
EXTD=YEAR: 2002
EXTT0=
EXTT1=
EXTT2=
EXTT3=
EXTT4=
EXTT5=
EXTT6=
EXTT7=
EXTT8=
EXTT9=
EXTT10=
EXTT11=
EXTT12=
PLAYORDER=
